<?xml version="1.0" encoding="iso-8859-1"?>
<!-- Generator: Adobe Illustrator 19.0.0, SVG Export Plug-In . SVG Version: 6.00 Build 0)  -->
<svg version="1.1" id="Layer_1" xmlns="http://www.w3.org/2000/svg" xmlns:xlink="http://www.w3.org/1999/xlink" x="0px" y="0px"
	 viewBox="0 0 512 512" style="enable-background:new 0 0 512 512;" xml:space="preserve">
<g>
	<polygon style="fill:#ECF0F1;" points="97.103,176.552 397.241,176.552 397.241,0 97.103,0 	"/>
	<g>
		<polygon style="fill:#BDC3C7;" points="97.103,176.552 185.379,176.552 185.379,0 97.103,0 		"/>
		<polygon style="fill:#BDC3C7;" points="317.793,141.241 353.103,141.241 353.103,35.31 317.793,35.31 		"/>
	</g>
	<polygon style="fill:#ECF0F1;" points="97.103,512 397.241,512 397.241,264.828 97.103,264.828 	"/>
	<g>
		<path style="fill:#BDC3C7;" d="M344.276,335.448H150.069c-4.882,0-8.828-3.955-8.828-8.828c0-4.873,3.946-8.828,8.828-8.828
			h194.207c4.882,0,8.828,3.955,8.828,8.828C353.103,331.493,349.158,335.448,344.276,335.448"/>
		<path style="fill:#BDC3C7;" d="M344.276,397.241H150.069c-4.882,0-8.828-3.955-8.828-8.828s3.946-8.828,8.828-8.828h194.207
			c4.882,0,8.828,3.955,8.828,8.828S349.158,397.241,344.276,397.241"/>
		<path style="fill:#BDC3C7;" d="M344.276,459.034H150.069c-4.882,0-8.828-3.955-8.828-8.828c0-4.873,3.946-8.828,8.828-8.828
			h194.207c4.882,0,8.828,3.955,8.828,8.828C353.103,455.08,349.158,459.034,344.276,459.034"/>
	</g>
	<polygon style="fill:#2C3E50;" points="441.379,0 397.241,0 397.241,176.552 97.103,176.552 97.103,0 17.655,0 17.655,512 
		97.103,512 97.103,264.828 397.241,264.828 397.241,512 494.345,512 494.345,52.966 	"/>
</g>
</svg>
