<?xml version="1.0" encoding="iso-8859-1"?>
<!-- Generator: Adobe Illustrator 19.0.0, SVG Export Plug-In . SVG Version: 6.00 Build 0)  -->
<svg version="1.1" id="Capa_1" xmlns="http://www.w3.org/2000/svg" xmlns:xlink="http://www.w3.org/1999/xlink" x="0px" y="0px"
	 viewBox="0 0 504.036 504.036" style="enable-background:new 0 0 504.036 504.036;" xml:space="preserve">
<g>
	<path style="fill:#F3D55B;" d="M347.119,278.052v208.271c-0.029,9.574-7.782,17.327-17.356,17.356H17.356
		C7.782,503.651,0.029,495.897,0,486.323V17.713C0.029,8.14,7.782,0.386,17.356,0.357h312.407
		c9.574,0.029,17.327,7.782,17.356,17.356V278.052z"/>
	<polygon style="fill:#AF8066;" points="88.888,383.064 52.068,468.967 137.971,432.147 147.525,416.9 104.136,373.51 	"/>
	<g>
		<path style="fill:#3D324C;" d="M69.424,87.137h208.271c4.793,0,8.678-3.885,8.678-8.678c0-4.793-3.885-8.678-8.678-8.678H69.424
			c-4.793,0-8.678,3.885-8.678,8.678C60.746,83.252,64.631,87.137,69.424,87.137z"/>
		<path style="fill:#3D324C;" d="M277.695,121.849H69.424c-4.793,0-8.678,3.885-8.678,8.678c0,4.793,3.885,8.678,8.678,8.678
			h208.271c4.793,0,8.678-3.885,8.678-8.678C286.373,125.734,282.488,121.849,277.695,121.849z"/>
		<path style="fill:#3D324C;" d="M225.627,173.916H69.424c-4.793,0-8.678,3.885-8.678,8.678s3.885,8.678,8.678,8.678h156.203
			c4.793,0,8.678-3.885,8.678-8.678S230.42,173.916,225.627,173.916z"/>
	</g>
	
		<rect x="41.646" y="199.659" transform="matrix(-0.7071 0.7071 -0.7071 -0.7071 655.1008 197.3902)" style="fill:#F29C1F;" width="490.047" height="69.424"/>
	
		<rect x="406.704" y="60.872" transform="matrix(-0.7071 0.7071 -0.7071 -0.7071 793.8229 -137.6442)" style="fill:#D1D4D1;" width="37.428" height="69.424"/>
	<path style="fill:#DF4D60;" d="M493.863,76.289l-30.633,30.633l-49.117-49.117l30.633-30.633
		c8.774-8.774,21.562-12.201,33.548-8.989s21.347,12.573,24.559,24.559C506.064,54.727,502.637,67.515,493.863,76.289z"/>
</g>
</svg>
