<?xml version="1.0" encoding="UTF-8" standalone="no"?>
<svg
   xmlns:dc="http://purl.org/dc/elements/1.1/"
   xmlns:cc="http://creativecommons.org/ns#"
   xmlns:rdf="http://www.w3.org/1999/02/22-rdf-syntax-ns#"
   xmlns:svg="http://www.w3.org/2000/svg"
   xmlns="http://www.w3.org/2000/svg"
   version="1.1"
   id="svg2"
   viewBox="0 0 68.011508 68.059937"
   height="19.208027mm"
   width="19.194359mm">
  <defs
     id="defs4" />
  <metadata
     id="metadata7">
    <rdf:RDF>
      <cc:Work
         rdf:about="">
        <dc:format>image/svg+xml</dc:format>
        <dc:type
           rdf:resource="http://purl.org/dc/dcmitype/StillImage" />
        <dc:title></dc:title>
      </cc:Work>
    </rdf:RDF>
  </metadata>
  <g
     transform="translate(-338.03574,-492.12115)"
     id="layer1">
    <g
       transform="translate(1.382503e-5,-2.1107504e-5)"
       id="text3347"
       style="font-style:normal;font-weight:normal;font-size:42.4865303px;line-height:125%;font-family:Sans;letter-spacing:0px;word-spacing:0px;fill:#fab017;fill-opacity:1;stroke:none;stroke-width:1px;stroke-linecap:butt;stroke-linejoin:miter;stroke-opacity:1">
      <path
         id="path4140"
         style="font-style:normal;font-variant:normal;font-weight:bold;font-stretch:normal;font-family:Montserrat;-inkscape-font-specification:'Montserrat Bold';fill:#fab017;fill-opacity:1"
         d="m 370.74564,511.3021 q 6.84033,0 9.94185,2.67665 3.144,2.63416 3.144,8.15741 0,5.48077 -3.22897,8.02996 -3.18649,2.54919 -9.77191,2.54919 l -3.95124,0 0,8.28487 -6.6279,0 0,-29.69808 10.49417,0 z m 0.59481,15.67753 q 3.31395,0 4.50357,-1.31708 1.18963,-1.35957 1.18963,-3.90877 0,-2.59167 -1.572,-3.65384 -1.52952,-1.10465 -4.80098,-1.10465 l -3.7813,0 0,9.98434 4.46108,0 z" />
    </g>
    <path
       id="rect3336"
       d="m 338.03574,560.18109 c 10,0 20,0 30,0 0,-2 0,-4 0,-6 -8,0 -16,0 -24,0 0,-8 0,-16 0,-24 -2,0 -4,0 -6,0 0,10 0,20 0,30 z"
       style="opacity:1;fill:#68c7b3;fill-opacity:1;stroke:none;stroke-width:93.91799927;stroke-linecap:butt;stroke-linejoin:miter;stroke-miterlimit:0;stroke-dasharray:751.34399414, 751.34399414;stroke-dashoffset:770.12756348;stroke-opacity:1" />
    <path
       id="rect3336-1"
       d="m 338.03574,492.12115 c 0,10 0,20 0,30 2,0 4,0 6,0 0,-8 0,-16 0,-24 8,0 16,0 24,0 0,-2 0,-4 0,-6 -10,0 -20,0 -30,0 z"
       style="opacity:1;fill:#e65c23;fill-opacity:1;stroke:none;stroke-width:93.91799927;stroke-linecap:butt;stroke-linejoin:miter;stroke-miterlimit:0;stroke-dasharray:751.34399414, 751.34399414;stroke-dashoffset:770.12756348;stroke-opacity:1" />
    <path
       id="rect3336-2"
       d="m 406.04725,560.18109 c 0,-10 0,-20 0,-30 -2,0 -4,0 -6,0 0,8 0,16 0,24 -8,0 -16,0 -24,0 0,2 0,4 0,6 10,0 20,0 30,0 z"
       style="opacity:1;fill:#45c2e6;fill-opacity:1;stroke:none;stroke-width:93.91799927;stroke-linecap:butt;stroke-linejoin:miter;stroke-miterlimit:0;stroke-dasharray:751.34399414, 751.34399414;stroke-dashoffset:770.12756348;stroke-opacity:1" />
    <path
       id="rect3336-4"
       d="m 406.04725,492.12115 c -10,0 -20,0 -30,0 0,2 0,4 0,6 8,0 16,0 24,0 0,8 0,16 0,24 2,0 4,0 6,0 0,-10 0,-20 0,-30 z"
       style="opacity:1;fill:#87c23f;fill-opacity:1;stroke:none;stroke-width:93.91799927;stroke-linecap:butt;stroke-linejoin:miter;stroke-miterlimit:0;stroke-dasharray:751.34399414, 751.34399414;stroke-dashoffset:770.12756348;stroke-opacity:1" />
  </g>
</svg>
